<svg width="100%" height="100%" viewBox="0 0 387 128" fill="none" xmlns="http://www.w3.org/2000/svg">
<g clip-path="url(#clip0)">
<rect width="128" height="128" rx="20" fill="#1BD16E"/>
<path d="M110.943 43C110.943 48.6667 108.943 53.5667 104.943 57.7C100.943 61.7667 95.1092 64.7 87.4426 66.5C91.5759 67.6333 94.7093 69.5 96.8426 72.1C98.9759 74.6333 100.043 77.5667 100.043 80.9C100.043 86.1667 98.3759 90.7333 95.0426 94.6C91.7759 98.4667 86.9759 101.467 80.6426 103.6C74.3092 105.667 66.6759 106.7 57.7426 106.7C54.4092 106.7 51.7426 106.6 49.7426 106.4C49.6759 108.267 48.8759 109.667 47.3426 110.6C45.8092 111.533 43.8426 112 41.4426 112C39.0426 112 37.3759 111.467 36.4426 110.4C35.5759 109.333 35.2092 107.767 35.3426 105.7C35.9426 96.3667 37.1092 86.6 38.8426 76.4C40.5759 66.1333 42.7759 56.2333 45.4426 46.7C45.9092 45.0333 46.8426 43.8667 48.2426 43.2C49.6426 42.5333 51.4759 42.2 53.7426 42.2C57.8092 42.2 59.8426 43.3333 59.8426 45.6C59.8426 46.5333 59.6426 47.6 59.2426 48.8C57.5092 54 55.7759 61.0667 54.0426 70C52.3092 78.8667 51.0759 87.3333 50.3426 95.4C53.5426 95.6667 56.1426 95.8 58.1426 95.8C67.4759 95.8 74.3092 94.4667 78.6426 91.8C83.0426 89.0667 85.2426 85.6 85.2426 81.4C85.2426 78.4667 83.9759 76 81.4426 74C78.9759 72 74.8092 70.9 68.9426 70.7C67.6092 70.6333 66.6759 70.3 66.1426 69.7C65.6092 69.1 65.3426 68.1333 65.3426 66.8C65.3426 64.8667 65.7426 63.3 66.5426 62.1C67.3426 60.9 68.8092 60.2667 70.9426 60.2C75.6759 60.0667 79.9426 59.3667 83.7426 58.1C87.6092 56.8333 90.6426 55.0667 92.8426 52.8C95.0426 50.4667 96.1426 47.7667 96.1426 44.7C96.1426 40.8333 94.2426 37.8 90.4426 35.6C86.6426 33.3333 80.8092 32.2 72.9426 32.2C65.8092 32.2 58.9092 33.1333 52.2426 35C45.5759 36.8 39.9092 39.1 35.2426 41.9C33.1092 43.1667 31.3092 43.8 29.8426 43.8C28.6426 43.8 27.7092 43.4 27.0426 42.6C26.4426 41.7333 26.1426 40.6667 26.1426 39.4C26.1426 37.7333 26.4759 36.3 27.1426 35.1C27.8759 33.9 29.5759 32.5333 32.2426 31C37.8426 27.8 44.4092 25.3 51.9426 23.5C59.4759 21.7 67.1759 20.8 75.0426 20.8C87.1092 20.8 96.1093 22.8333 102.043 26.9C107.976 30.9667 110.943 36.3333 110.943 43Z" fill="#312A2A"/>
<path d="M106.943 39C106.943 44.6667 104.943 49.5667 100.943 53.7C96.9426 57.7667 91.1092 60.7 83.4426 62.5C87.5759 63.6333 90.7093 65.5 92.8426 68.1C94.9759 70.6333 96.0426 73.5667 96.0426 76.9C96.0426 82.1667 94.3759 86.7333 91.0426 90.6C87.7759 94.4667 82.9759 97.4667 76.6426 99.6C70.3092 101.667 62.6759 102.7 53.7426 102.7C50.4092 102.7 47.7426 102.6 45.7426 102.4C45.6759 104.267 44.8759 105.667 43.3426 106.6C41.8092 107.533 39.8426 108 37.4426 108C35.0426 108 33.3759 107.467 32.4426 106.4C31.5759 105.333 31.2092 103.767 31.3426 101.7C31.9426 92.3667 33.1092 82.6 34.8426 72.4C36.5759 62.1333 38.7759 52.2333 41.4426 42.7C41.9092 41.0333 42.8426 39.8667 44.2426 39.2C45.6426 38.5333 47.4759 38.2 49.7426 38.2C53.8092 38.2 55.8426 39.3333 55.8426 41.6C55.8426 42.5333 55.6426 43.6 55.2426 44.8C53.5092 50 51.7759 57.0667 50.0426 66C48.3092 74.8667 47.0759 83.3333 46.3426 91.4C49.5426 91.6667 52.1426 91.8 54.1426 91.8C63.4759 91.8 70.3092 90.4667 74.6426 87.8C79.0426 85.0667 81.2426 81.6 81.2426 77.4C81.2426 74.4667 79.9759 72 77.4426 70C74.9759 68 70.8092 66.9 64.9426 66.7C63.6092 66.6333 62.6759 66.3 62.1426 65.7C61.6092 65.1 61.3426 64.1333 61.3426 62.8C61.3426 60.8667 61.7426 59.3 62.5426 58.1C63.3426 56.9 64.8092 56.2667 66.9426 56.2C71.6759 56.0667 75.9426 55.3667 79.7426 54.1C83.6092 52.8333 86.6426 51.0667 88.8426 48.8C91.0426 46.4667 92.1426 43.7667 92.1426 40.7C92.1426 36.8333 90.2426 33.8 86.4426 31.6C82.6426 29.3333 76.8092 28.2 68.9426 28.2C61.8092 28.2 54.9092 29.1333 48.2426 31C41.5759 32.8 35.9092 35.1 31.2426 37.9C29.1092 39.1667 27.3092 39.8 25.8426 39.8C24.6426 39.8 23.7092 39.4 23.0426 38.6C22.4426 37.7333 22.1426 36.6667 22.1426 35.4C22.1426 33.7333 22.4759 32.3 23.1426 31.1C23.8759 29.9 25.5759 28.5333 28.2426 27C33.8426 23.8 40.4092 21.3 47.9426 19.5C55.4759 17.7 63.1759 16.8 71.0426 16.8C83.1092 16.8 92.1093 18.8333 98.0426 22.9C103.976 26.9667 106.943 32.3333 106.943 39Z" fill="white"/>
<path d="M194.933 72.616C195.904 72.616 196.65 73.1013 197.173 74.072C197.696 75.0427 197.957 76.2747 197.957 77.768C197.957 81.352 196.874 83.48 194.709 84.152C190.229 85.72 185.301 86.616 179.925 86.84C178.506 93.112 175.706 98.152 171.525 101.96C167.344 105.693 162.602 107.56 157.301 107.56C152.821 107.56 148.976 106.477 145.765 104.312C142.629 102.147 140.24 99.272 138.597 95.688C136.954 92.104 136.133 88.2213 136.133 84.04C136.133 78.3653 137.216 73.3253 139.381 68.92C141.546 64.44 144.533 60.968 148.341 58.504C152.149 55.9653 156.368 54.696 160.997 54.696C166.672 54.696 171.226 56.6747 174.661 60.632C178.17 64.5147 180.224 69.3307 180.821 75.08C184.33 74.856 188.512 74.1093 193.365 72.84C193.962 72.6907 194.485 72.616 194.933 72.616ZM158.197 95.688C160.586 95.688 162.64 94.7173 164.357 92.776C166.149 90.8347 167.344 88.0347 167.941 84.376C165.626 82.808 163.834 80.7547 162.565 78.216C161.37 75.6773 160.773 72.9893 160.773 70.152C160.773 68.9573 160.885 67.7627 161.109 66.568H160.549C157.562 66.568 155.061 68.024 153.045 70.936C151.104 73.7733 150.133 77.8053 150.133 83.032C150.133 87.1387 150.917 90.2747 152.485 92.44C154.128 94.6053 156.032 95.688 158.197 95.688ZM198.536 107.56C195.699 107.56 193.683 106.067 192.488 103.08C191.368 100.093 190.808 95.3147 190.808 88.744C190.808 79.0373 192.189 69.816 194.952 61.08C195.624 58.9147 196.707 57.3467 198.2 56.376C199.768 55.3307 201.933 54.808 204.696 54.808C206.189 54.808 207.235 54.9947 207.832 55.368C208.429 55.7413 208.728 56.4507 208.728 57.496C208.728 58.6907 208.168 61.3787 207.048 65.56C206.301 68.5467 205.704 71.16 205.256 73.4C204.808 75.64 204.435 78.4027 204.136 81.688C206.6 75.2667 209.363 70.04 212.424 66.008C215.485 61.976 218.472 59.1013 221.384 57.384C224.371 55.6667 227.096 54.808 229.56 54.808C234.413 54.808 236.84 57.2347 236.84 62.088C236.84 65 236.019 70.264 234.376 77.88C232.957 84.376 232.248 88.6693 232.248 90.76C232.248 93.7467 233.331 95.24 235.496 95.24C236.989 95.24 238.744 94.344 240.76 92.552C242.851 90.6853 245.613 87.6987 249.048 83.592C249.944 82.5467 250.952 82.024 252.072 82.024C253.043 82.024 253.789 82.472 254.312 83.368C254.909 84.264 255.208 85.496 255.208 87.064C255.208 90.0507 254.499 92.3653 253.08 94.008C249.869 97.9653 246.397 101.213 242.664 103.752C239.005 106.291 234.824 107.56 230.12 107.56C226.312 107.56 223.437 106.477 221.496 104.312C219.555 102.072 218.584 98.8613 218.584 94.68C218.584 92.5893 219.107 88.856 220.152 83.48C221.123 78.776 221.608 75.528 221.608 73.736C221.608 72.5413 221.197 71.944 220.376 71.944C219.405 71.944 218.024 73.2133 216.232 75.752C214.515 78.216 212.723 81.5013 210.856 85.608C209.064 89.7147 207.608 94.0453 206.488 98.6C205.667 102.109 204.696 104.499 203.576 105.768C202.531 106.963 200.851 107.56 198.536 107.56ZM298.339 82.024C299.309 82.024 300.056 82.472 300.579 83.368C301.176 84.264 301.475 85.496 301.475 87.064C301.475 90.0507 300.765 92.3653 299.347 94.008C296.584 97.368 292.664 100.467 287.587 103.304C282.584 106.141 277.208 107.56 271.459 107.56C263.619 107.56 257.533 105.432 253.203 101.176C248.872 96.92 246.707 91.096 246.707 83.704C246.707 78.552 247.789 73.7733 249.955 69.368C252.12 64.888 255.107 61.3413 258.915 58.728C262.797 56.1147 267.165 54.808 272.019 54.808C276.349 54.808 279.821 56.1147 282.435 58.728C285.048 61.2667 286.355 64.7387 286.355 69.144C286.355 74.296 284.488 78.7387 280.755 82.472C277.096 86.1307 270.861 89.0427 262.051 91.208C263.917 94.6427 267.464 96.36 272.691 96.36C276.051 96.36 279.859 95.2027 284.115 92.888C288.445 90.4987 292.179 87.4 295.315 83.592C296.211 82.5467 297.219 82.024 298.339 82.024ZM270.115 65.784C267.352 65.784 265 67.3893 263.059 70.6C261.192 73.8107 260.259 77.6933 260.259 82.248V82.472C264.664 81.4267 268.136 79.8587 270.675 77.768C273.213 75.6773 274.483 73.2507 274.483 70.488C274.483 69.0693 274.072 67.9493 273.251 67.128C272.504 66.232 271.459 65.784 270.115 65.784ZM302.547 107.56C299.71 107.56 297.694 106.067 296.499 103.08C295.379 100.093 294.819 95.3147 294.819 88.744C294.819 79.0373 296.201 69.816 298.963 61.08C299.635 58.9147 300.718 57.3467 302.211 56.376C303.779 55.3307 305.945 54.808 308.707 54.808C310.201 54.808 311.246 54.9947 311.843 55.368C312.441 55.7413 312.739 56.4507 312.739 57.496C312.739 58.6907 312.179 61.3787 311.059 65.56C310.313 68.5467 309.715 71.16 309.267 73.4C308.819 75.5653 308.446 78.2907 308.147 81.576C310.163 75.752 312.553 70.824 315.315 66.792C318.153 62.76 321.027 59.7733 323.939 57.832C326.926 55.816 329.726 54.808 332.339 54.808C334.953 54.808 336.782 55.4053 337.827 56.6C338.947 57.7947 339.507 59.624 339.507 62.088C339.507 64.4773 338.798 68.808 337.379 75.08C336.782 77.768 336.371 79.784 336.147 81.128C339.881 71.944 344.025 65.2613 348.579 61.08C353.134 56.8987 357.39 54.808 361.347 54.808C366.201 54.808 368.627 57.2347 368.627 62.088C368.627 65 367.806 70.264 366.163 77.88C364.745 84.376 364.035 88.6693 364.035 90.76C364.035 93.7467 365.118 95.24 367.283 95.24C368.777 95.24 370.531 94.344 372.547 92.552C374.638 90.6853 377.401 87.6987 380.835 83.592C381.731 82.5467 382.739 82.024 383.859 82.024C384.83 82.024 385.577 82.472 386.099 83.368C386.697 84.264 386.995 85.496 386.995 87.064C386.995 90.0507 386.286 92.3653 384.867 94.008C381.657 97.9653 378.185 101.213 374.451 103.752C370.793 106.291 366.611 107.56 361.907 107.56C358.099 107.56 355.225 106.477 353.283 104.312C351.342 102.072 350.371 98.8613 350.371 94.68C350.371 92.5893 350.894 88.856 351.939 83.48C352.91 78.776 353.395 75.528 353.395 73.736C353.395 72.5413 352.985 71.944 352.163 71.944C351.193 71.944 349.811 73.2133 348.019 75.752C346.227 78.216 344.435 81.5013 342.643 85.608C340.851 89.7147 339.395 94.0453 338.275 98.6C337.454 102.184 336.483 104.573 335.363 105.768C334.318 106.963 332.601 107.56 330.211 107.56C327.747 107.56 325.881 106.403 324.611 104.088C323.417 101.699 322.819 98.824 322.819 95.464C322.819 92.6267 323.193 88.52 323.939 83.144C324.537 78.3653 324.835 75.2293 324.835 73.736C324.835 72.5413 324.425 71.944 323.603 71.944C322.483 71.944 321.065 73.288 319.347 75.976C317.63 78.664 315.95 82.0987 314.307 86.28C312.739 90.4613 311.47 94.568 310.499 98.6C309.678 102.109 308.707 104.499 307.587 105.768C306.542 106.963 304.862 107.56 302.547 107.56Z" fill="#312A2A"/>
<path d="M190.933 68.616C191.904 68.616 192.65 69.1013 193.173 70.072C193.696 71.0427 193.957 72.2747 193.957 73.768C193.957 77.352 192.874 79.48 190.709 80.152C186.229 81.72 181.301 82.616 175.925 82.84C174.506 89.112 171.706 94.152 167.525 97.96C163.344 101.693 158.602 103.56 153.301 103.56C148.821 103.56 144.976 102.477 141.765 100.312C138.629 98.1467 136.24 95.272 134.597 91.688C132.954 88.104 132.133 84.2213 132.133 80.04C132.133 74.3653 133.216 69.3253 135.381 64.92C137.546 60.44 140.533 56.968 144.341 54.504C148.149 51.9653 152.368 50.696 156.997 50.696C162.672 50.696 167.226 52.6747 170.661 56.632C174.17 60.5147 176.224 65.3307 176.821 71.08C180.33 70.856 184.512 70.1093 189.365 68.84C189.962 68.6907 190.485 68.616 190.933 68.616ZM154.197 91.688C156.586 91.688 158.64 90.7173 160.357 88.776C162.149 86.8347 163.344 84.0347 163.941 80.376C161.626 78.808 159.834 76.7547 158.565 74.216C157.37 71.6773 156.773 68.9893 156.773 66.152C156.773 64.9573 156.885 63.7627 157.109 62.568H156.549C153.562 62.568 151.061 64.024 149.045 66.936C147.104 69.7733 146.133 73.8053 146.133 79.032C146.133 83.1387 146.917 86.2747 148.485 88.44C150.128 90.6053 152.032 91.688 154.197 91.688ZM194.536 103.56C191.699 103.56 189.683 102.067 188.488 99.08C187.368 96.0933 186.808 91.3147 186.808 84.744C186.808 75.0373 188.189 65.816 190.952 57.08C191.624 54.9147 192.707 53.3467 194.2 52.376C195.768 51.3307 197.933 50.808 200.696 50.808C202.189 50.808 203.235 50.9947 203.832 51.368C204.429 51.7413 204.728 52.4507 204.728 53.496C204.728 54.6907 204.168 57.3787 203.048 61.56C202.301 64.5467 201.704 67.16 201.256 69.4C200.808 71.64 200.435 74.4027 200.136 77.688C202.6 71.2667 205.363 66.04 208.424 62.008C211.485 57.976 214.472 55.1013 217.384 53.384C220.371 51.6667 223.096 50.808 225.56 50.808C230.413 50.808 232.84 53.2347 232.84 58.088C232.84 61 232.019 66.264 230.376 73.88C228.957 80.376 228.248 84.6693 228.248 86.76C228.248 89.7467 229.331 91.24 231.496 91.24C232.989 91.24 234.744 90.344 236.76 88.552C238.851 86.6853 241.613 83.6987 245.048 79.592C245.944 78.5467 246.952 78.024 248.072 78.024C249.043 78.024 249.789 78.472 250.312 79.368C250.909 80.264 251.208 81.496 251.208 83.064C251.208 86.0507 250.499 88.3653 249.08 90.008C245.869 93.9653 242.397 97.2133 238.664 99.752C235.005 102.291 230.824 103.56 226.12 103.56C222.312 103.56 219.437 102.477 217.496 100.312C215.555 98.072 214.584 94.8613 214.584 90.68C214.584 88.5893 215.107 84.856 216.152 79.48C217.123 74.776 217.608 71.528 217.608 69.736C217.608 68.5413 217.197 67.944 216.376 67.944C215.405 67.944 214.024 69.2133 212.232 71.752C210.515 74.216 208.723 77.5013 206.856 81.608C205.064 85.7147 203.608 90.0453 202.488 94.6C201.667 98.1093 200.696 100.499 199.576 101.768C198.531 102.963 196.851 103.56 194.536 103.56ZM294.339 78.024C295.309 78.024 296.056 78.472 296.579 79.368C297.176 80.264 297.475 81.496 297.475 83.064C297.475 86.0507 296.765 88.3653 295.347 90.008C292.584 93.368 288.664 96.4667 283.587 99.304C278.584 102.141 273.208 103.56 267.459 103.56C259.619 103.56 253.533 101.432 249.203 97.176C244.872 92.92 242.707 87.096 242.707 79.704C242.707 74.552 243.789 69.7733 245.955 65.368C248.12 60.888 251.107 57.3413 254.915 54.728C258.797 52.1147 263.165 50.808 268.019 50.808C272.349 50.808 275.821 52.1147 278.435 54.728C281.048 57.2667 282.355 60.7387 282.355 65.144C282.355 70.296 280.488 74.7387 276.755 78.472C273.096 82.1307 266.861 85.0427 258.051 87.208C259.917 90.6427 263.464 92.36 268.691 92.36C272.051 92.36 275.859 91.2027 280.115 88.888C284.445 86.4987 288.179 83.4 291.315 79.592C292.211 78.5467 293.219 78.024 294.339 78.024ZM266.115 61.784C263.352 61.784 261 63.3893 259.059 66.6C257.192 69.8107 256.259 73.6933 256.259 78.248V78.472C260.664 77.4267 264.136 75.8587 266.675 73.768C269.213 71.6773 270.483 69.2507 270.483 66.488C270.483 65.0693 270.072 63.9493 269.251 63.128C268.504 62.232 267.459 61.784 266.115 61.784ZM298.547 103.56C295.71 103.56 293.694 102.067 292.499 99.08C291.379 96.0933 290.819 91.3147 290.819 84.744C290.819 75.0373 292.201 65.816 294.963 57.08C295.635 54.9147 296.718 53.3467 298.211 52.376C299.779 51.3307 301.945 50.808 304.707 50.808C306.201 50.808 307.246 50.9947 307.843 51.368C308.441 51.7413 308.739 52.4507 308.739 53.496C308.739 54.6907 308.179 57.3787 307.059 61.56C306.313 64.5467 305.715 67.16 305.267 69.4C304.819 71.5653 304.446 74.2907 304.147 77.576C306.163 71.752 308.553 66.824 311.315 62.792C314.153 58.76 317.027 55.7733 319.939 53.832C322.926 51.816 325.726 50.808 328.339 50.808C330.953 50.808 332.782 51.4053 333.827 52.6C334.947 53.7947 335.507 55.624 335.507 58.088C335.507 60.4773 334.798 64.808 333.379 71.08C332.782 73.768 332.371 75.784 332.147 77.128C335.881 67.944 340.025 61.2613 344.579 57.08C349.134 52.8987 353.39 50.808 357.347 50.808C362.201 50.808 364.627 53.2347 364.627 58.088C364.627 61 363.806 66.264 362.163 73.88C360.745 80.376 360.035 84.6693 360.035 86.76C360.035 89.7467 361.118 91.24 363.283 91.24C364.777 91.24 366.531 90.344 368.547 88.552C370.638 86.6853 373.401 83.6987 376.835 79.592C377.731 78.5467 378.739 78.024 379.859 78.024C380.83 78.024 381.577 78.472 382.099 79.368C382.697 80.264 382.995 81.496 382.995 83.064C382.995 86.0507 382.286 88.3653 380.867 90.008C377.657 93.9653 374.185 97.2133 370.451 99.752C366.793 102.291 362.611 103.56 357.907 103.56C354.099 103.56 351.225 102.477 349.283 100.312C347.342 98.072 346.371 94.8613 346.371 90.68C346.371 88.5893 346.894 84.856 347.939 79.48C348.91 74.776 349.395 71.528 349.395 69.736C349.395 68.5413 348.985 67.944 348.163 67.944C347.193 67.944 345.811 69.2133 344.019 71.752C342.227 74.216 340.435 77.5013 338.643 81.608C336.851 85.7147 335.395 90.0453 334.275 94.6C333.454 98.184 332.483 100.573 331.363 101.768C330.318 102.963 328.601 103.56 326.211 103.56C323.747 103.56 321.881 102.403 320.611 100.088C319.417 97.6987 318.819 94.824 318.819 91.464C318.819 88.6267 319.193 84.52 319.939 79.144C320.537 74.3653 320.835 71.2293 320.835 69.736C320.835 68.5413 320.425 67.944 319.603 67.944C318.483 67.944 317.065 69.288 315.347 71.976C313.63 74.664 311.95 78.0987 310.307 82.28C308.739 86.4613 307.47 90.568 306.499 94.6C305.678 98.1093 304.707 100.499 303.587 101.768C302.542 102.963 300.862 103.56 298.547 103.56Z" fill="#32CC78"/>
</g>
<defs>
<clipPath id="clip0">
<rect width="387" height="128" fill="white"/>
</clipPath>
</defs>
</svg>
